# xmcd
#
# Track frame offsets:
#	150
#	24907
#	44559
#	72028
#	93460
#	123156
#	140813
#	165120
#	195138
#	221920
#	248185
#	268683
#	292304
#	314936
#	336012
#
# Disc length: 4799 seconds
#
# Revision: 3
# Processed by: cddbd v1.5.2PL0 Copyright (c) Steve Scherf et al.
# Submitted via: audiograbber 1.83.01
#
DISCID=e512bd0f
DTITLE=Joe Bonamassa - Redemption
DYEAR=2018
DGENRE=Blues Rock
TTITLE0=Evil Mama
TTITLE1=King Bee Shakedown
TTITLE2=Molly O'
TTITLE3=Deep In The Blues Again
TTITLE4=Self-Inflicted Wounds
TTITLE5=Pick Up The Pieces
TTITLE6=The Ghost Of Macon Jones
TTITLE7=Just 'Cos You Can Don't Mean You Should
TTITLE8=Redemption
TTITLE9=I've Got Some Mind Over What Matters
TTITLE10=Stronger Now In Broken Places
TTITLE11=Love Is A Gamble
TTITLE12=Black Roses (bonus track)
TTITLE13=Stronger Now In Broken Places (Band Version, bonus track)
TTITLE14=Somewhere Down The Road (bonus track)
EXTD=
EXTT0=
EXTT1=
EXTT2=
EXTT3=
EXTT4=
EXTT5=
EXTT6=
EXTT7=
EXTT8=
EXTT9=
EXTT10=
EXTT11=
EXTT12=
EXTT13=
EXTT14=
PLAYORDER=
